<svg width="32" height="35" viewBox="0 0 32 35" fill="none" xmlns="http://www.w3.org/2000/svg">
<rect y="0.621918" width="32" height="33.7897" rx="7" fill="#FEF0F0"/>
<path d="M22.5849 13.5286C22.3615 12.9866 22.0394 12.4954 21.6365 12.0826C21.2333 11.6685 20.758 11.3395 20.2363 11.1134C19.6954 10.8779 19.1152 10.7574 18.5295 10.7588C17.7077 10.7588 16.906 10.9946 16.2092 11.4399C16.0425 11.5465 15.8842 11.6635 15.7342 11.791C15.5841 11.6635 15.4258 11.5465 15.2591 11.4399C14.5624 10.9946 13.7606 10.7588 12.9388 10.7588C12.3471 10.7588 11.7737 10.8776 11.232 11.1134C10.7086 11.3404 10.2369 11.667 9.83181 12.0826C9.42843 12.495 9.10619 12.9863 8.88337 13.5286C8.65168 14.0927 8.53333 14.6917 8.53333 15.3082C8.53333 15.8898 8.64668 16.4958 8.8717 17.1123C9.06006 17.6274 9.33009 18.1618 9.67513 18.7015C10.2219 19.5555 10.9736 20.4461 11.9071 21.349C13.4539 22.8457 14.9857 23.8796 15.0507 23.9215L15.4458 24.1869C15.6208 24.304 15.8458 24.304 16.0209 24.1869L16.4159 23.9215C16.4809 23.8778 18.0111 22.8457 19.5596 21.349C20.493 20.4461 21.2448 19.5555 21.7915 18.7015C22.1366 18.1618 22.4083 17.6274 22.5949 17.1123C22.82 16.4958 22.9333 15.8898 22.9333 15.3082C22.935 14.6917 22.8166 14.0927 22.5849 13.5286Z" fill="#FF8585"/>
</svg>
